<svg width="25" height="25" viewBox="0 0 25 25" fill="none" xmlns="http://www.w3.org/2000/svg">
<path d="M5.93287 0.0734863C3.14966 0.464111 0.908448 2.46606 0.224854 5.17603C0.156494 5.42993 0.083252 5.83521 0.0539551 6.07935C-0.0192871 6.68481 -0.0192871 18.3157 0.0539551 18.9211C0.39087 21.7678 2.41724 24.0823 5.17603 24.7756C5.42994 24.844 5.84009 24.9172 6.07935 24.9465C6.68482 25.0198 18.3157 25.0198 18.9212 24.9465C21.4846 24.6438 23.6282 22.969 24.5608 20.5471C24.7122 20.1516 24.888 19.4094 24.9466 18.9211C25.0198 18.3157 25.0198 6.68481 24.9466 6.07935C24.6438 3.51587 22.969 1.37231 20.5471 0.439697C20.1516 0.28833 19.4094 0.112549 18.9212 0.0539551C18.2522 -0.0290527 6.51392 -0.00952148 5.93287 0.0734863ZM20.3909 3.25708C21.0208 3.46704 21.5286 3.97485 21.7434 4.60962C21.846 4.91235 21.8509 5.50806 21.7532 5.83032C21.3528 7.15356 19.7757 7.71997 18.6282 6.95337C17.9544 6.50903 17.5979 5.71313 17.72 4.93677C17.8469 4.15552 18.3792 3.51587 19.1067 3.26685C19.4387 3.15454 20.0686 3.14478 20.3909 3.25708ZM13.5745 5.73755C15.0247 5.97681 16.304 6.6311 17.3342 7.66626C18.6477 8.97485 19.3362 10.6399 19.3362 12.5002C19.3362 14.3606 18.6477 16.0256 17.3342 17.3342C16.0257 18.6477 14.3606 19.3362 12.5003 19.3362C10.6399 19.3362 8.97486 18.6477 7.66627 17.3342C6.35279 16.0256 5.66431 14.3606 5.66431 12.5002C5.66431 10.6399 6.35279 8.97485 7.66627 7.66626C8.67701 6.65063 9.96119 5.98657 11.3772 5.73755C11.8801 5.65454 13.0667 5.64966 13.5745 5.73755Z" fill="#23241C"/>
</svg>
