<svg width="25" height="21" viewBox="0 0 25 21" fill="none" xmlns="http://www.w3.org/2000/svg">
<path d="M0.327148 0.62207C0.307617 0.636719 0.292969 0.729492 0.292969 0.827148C0.292969 0.983398 0.429688 1.16406 1.58691 2.55566C2.5293 3.68848 2.89062 4.15723 2.92969 4.29395C2.96387 4.42578 2.97363 6.36426 2.96875 10.3633L2.9541 16.2373L2.84668 16.4326C2.78809 16.54 2.12402 17.375 1.37207 18.2832C0.0439453 19.8896 0 19.9482 0 20.1533V20.3633H3.71094H7.42188V20.1289C7.41699 19.8994 7.41211 19.8945 6.00586 18.1953C4.98535 16.96 4.57031 16.4277 4.5166 16.2666C4.45312 16.0762 4.44336 15.417 4.44824 11.1152C4.44824 7.79004 4.46289 6.20312 4.49707 6.25195C4.52637 6.29102 5.99609 9.47949 7.76367 13.332L10.9814 20.3389L11.3623 20.3535L11.748 20.3682L14.5264 13.3223C16.0498 9.44531 17.3193 6.25684 17.3438 6.22754C17.3682 6.20312 17.3779 8.80566 17.373 12.0088L17.3584 17.8389L16.2451 18.918L15.1318 19.9971L15.1465 20.1924L15.1611 20.3877L20.0586 20.4023L24.9512 20.4121V20.2021C24.9512 19.9971 24.9414 19.9873 23.9209 18.9717C23.3594 18.4053 22.8711 17.9072 22.8467 17.8633C22.7832 17.751 22.7832 3.24902 22.8467 3.13184C22.876 3.08301 23.3691 2.58984 23.9453 2.02832L25 1.01758V0.802734V0.587891H21.5576C18.3301 0.587891 18.1152 0.592773 18.0713 0.670898C18.0469 0.719727 16.9482 3.44922 15.625 6.74023C14.3018 10.0312 13.208 12.751 13.1885 12.7852C13.1689 12.8193 11.9287 10.1582 10.3564 6.71582L7.55371 0.587891H3.95508C1.97754 0.587891 0.341797 0.602539 0.327148 0.62207Z" fill="#23241C"/>
</svg>
