<svg width="25" height="23" viewBox="0 0 25 23" fill="none" xmlns="http://www.w3.org/2000/svg">
<path d="M12.3145 5.20115C5.78125 7.72068 0.375977 9.82029 0.3125 9.86424C0.151367 9.97166 0 10.2207 0 10.3916C0 10.5967 0.117188 10.8408 0.273438 10.9482C0.351562 11.0019 1.69922 11.5244 3.27148 12.1103C4.84375 12.6914 6.15234 13.1943 6.18164 13.2285C6.21094 13.2578 6.72363 14.8642 7.31934 16.7978C7.91992 18.7314 8.44238 20.3867 8.48633 20.4795C8.52539 20.5674 8.62793 20.6845 8.71094 20.7334C8.88184 20.8359 9.22852 20.8554 9.38965 20.7676C9.44824 20.7383 10.1953 20.1377 11.0596 19.4345C12.9346 17.9013 12.876 17.9502 13.1299 17.8916C13.5303 17.8037 13.6084 17.8476 15.9717 19.5615C20.1123 22.5693 19.8145 22.3642 20.0732 22.3642C20.3467 22.3642 20.5371 22.2422 20.6689 21.9931C20.7959 21.7441 25.0146 1.36814 24.9805 1.16795C24.9219 0.870094 24.6094 0.606422 24.3066 0.611305C24.2432 0.611305 18.8477 2.67674 12.3145 5.20115ZM19.5703 5.16209C19.6045 5.19627 19.6289 5.25486 19.6289 5.29881C19.6289 5.34275 17.832 7.04685 15.6396 9.08787C10.3027 14.0439 10.0879 14.249 9.94629 14.4883C9.76074 14.8105 9.6875 15.1328 9.5166 16.4072C9.42871 17.0761 9.33594 17.6279 9.29688 17.6865C9.22363 17.8037 9.02344 17.8379 8.89648 17.7549C8.85742 17.7304 8.54004 16.7148 8.18848 15.499C7.51465 13.1455 7.47559 12.9355 7.63672 12.5644C7.68066 12.4619 7.78809 12.3154 7.87598 12.2324C8.07129 12.0469 19.3311 5.10349 19.4385 5.10349C19.4775 5.10349 19.5361 5.12791 19.5703 5.16209Z" fill="#D7BF01"/>
</svg>
