<svg width="24" height="20" viewBox="0 0 24 20" fill="none" xmlns="http://www.w3.org/2000/svg">
<path d="M15.574 0.35537C15.1111 0.460838 14.8298 0.560448 14.4314 0.759666C13.1248 1.41006 12.1931 2.56435 11.8181 3.99404C11.6892 4.50381 11.6423 5.4706 11.7244 5.98037L11.7771 6.26748L11.2263 6.23232C9.28101 6.10342 7.13648 5.40615 5.32007 4.30459C4.31812 3.70107 3.5857 3.11514 2.60132 2.13662C1.55249 1.08779 1.64624 1.11123 1.37085 1.80849C0.913821 2.99795 0.872805 4.07607 1.25952 5.16006C1.55835 6.00381 2.19116 6.92373 2.82984 7.44521L3.16382 7.71474H2.97632C2.63648 7.71474 1.89234 7.5331 1.44116 7.33389L0.984133 7.14053V7.43349C0.984133 8.46474 1.52906 9.71279 2.35523 10.5741C2.9646 11.2128 3.56226 11.5937 4.41187 11.8749L4.88062 12.0331L4.37671 12.1093C4.08374 12.1503 3.62085 12.1737 3.27515 12.1562C2.57788 12.121 2.59546 12.0683 3.01734 12.8769C3.47437 13.7499 4.22437 14.5058 5.0857 14.9452C5.71265 15.2675 6.04078 15.3729 6.69117 15.4667L7.21265 15.5429L6.98414 15.7245C6.86109 15.8241 6.57984 16.0116 6.36304 16.1464C4.66382 17.1776 2.77124 17.6757 0.784914 17.6054C-0.0822736 17.5702 -0.0822736 17.5761 0.779055 18.039C3.72632 19.621 6.90796 20.1308 10.2127 19.5448C15.2107 18.6601 19.1834 15.0976 20.8181 10.0526C21.2576 8.69326 21.492 7.25771 21.492 5.92764V5.14834L21.8318 4.89639C22.4588 4.42178 23.4373 3.37881 23.865 2.7167L23.9705 2.55849L23.6951 2.67568C23.0974 2.92764 21.3631 3.38467 21.2869 3.30849C21.2752 3.29678 21.4509 3.14443 21.6795 2.96865C22.3298 2.4706 22.9509 1.62099 23.2205 0.853416L23.2966 0.63662L22.5877 0.976463C21.9197 1.29873 21.117 1.58584 20.4841 1.74404L20.2029 1.80849L19.8982 1.5331C19.283 0.976463 18.5388 0.583885 17.7244 0.390526C17.1677 0.25576 16.1013 0.238182 15.574 0.35537Z" fill="#23241C"/>
</svg>
