<svg width="24" height="20" viewBox="0 0 24 20" fill="none" xmlns="http://www.w3.org/2000/svg">
<path d="M15.574 0.355281C15.1111 0.460749 14.8298 0.560359 14.4314 0.759577C13.1248 1.40997 12.1931 2.56426 11.8181 3.99395C11.6892 4.50372 11.6423 5.47051 11.7244 5.98028L11.7771 6.26739L11.2263 6.23223C9.28101 6.10333 7.13648 5.40606 5.32007 4.3045C4.31812 3.70098 3.5857 3.11505 2.60132 2.13653C1.55249 1.0877 1.64624 1.11114 1.37085 1.8084C0.913821 2.99786 0.872805 4.07598 1.25952 5.15997C1.55835 6.00372 2.19116 6.92364 2.82984 7.44512L3.16382 7.71465H2.97632C2.63648 7.71465 1.89234 7.53301 1.44116 7.3338L0.984133 7.14044V7.4334C0.984133 8.46465 1.52906 9.7127 2.35523 10.574C2.9646 11.2127 3.56226 11.5936 4.41187 11.8748L4.88062 12.033L4.37671 12.1092C4.08374 12.1502 3.62085 12.1736 3.27515 12.1561C2.57788 12.1209 2.59546 12.0682 3.01734 12.8768C3.47437 13.7498 4.22437 14.5057 5.0857 14.9451C5.71265 15.2674 6.04078 15.3728 6.69117 15.4666L7.21265 15.5428L6.98414 15.7244C6.86109 15.824 6.57984 16.0115 6.36304 16.1463C4.66382 17.1775 2.77124 17.6756 0.784914 17.6053C-0.0822736 17.5701 -0.0822736 17.576 0.779055 18.0389C3.72632 19.6209 6.90796 20.1307 10.2127 19.5447C15.2107 18.66 19.1834 15.0975 20.8181 10.0525C21.2576 8.69317 21.492 7.25762 21.492 5.92755V5.14825L21.8318 4.8963C22.4588 4.42169 23.4373 3.37872 23.865 2.71661L23.9705 2.5584L23.6951 2.67559C23.0974 2.92755 21.3631 3.38458 21.2869 3.3084C21.2752 3.29669 21.4509 3.14434 21.6795 2.96856C22.3298 2.47051 22.9509 1.6209 23.2205 0.853327L23.2966 0.636531L22.5877 0.976374C21.9197 1.29864 21.117 1.58575 20.4841 1.74395L20.2029 1.8084L19.8982 1.53301C19.283 0.976374 18.5388 0.583796 17.7244 0.390437C17.1677 0.255671 16.1013 0.238093 15.574 0.355281Z" fill="#D7BF01"/>
</svg>
